<svg width="185" height="83" viewBox="0 0 185 83" fill="none" xmlns="http://www.w3.org/2000/svg">
<g filter="url(#filter0_d_2013_3864)">
<g filter="url(#filter1_di_2013_3864)">
<rect x="17" y="14" width="151" height="46" rx="23" fill="#921616" shape-rendering="crispEdges"/>
<path d="M46.6 39.465C46.39 40.025 46.09 40.51 45.7 40.92C45.31 41.32 44.85 41.625 44.32 41.835C43.8 42.045 43.23 42.15 42.61 42.15C41.67 42.15 40.855 41.945 40.165 41.535C39.485 41.115 38.955 40.525 38.575 39.765C38.205 39.005 38.02 38.1 38.02 37.05C38.02 36 38.205 35.095 38.575 34.335C38.955 33.575 39.485 32.99 40.165 32.58C40.855 32.16 41.66 31.95 42.58 31.95C43.22 31.95 43.79 32.04 44.29 32.22C44.79 32.39 45.215 32.65 45.565 33C45.925 33.34 46.21 33.76 46.42 34.26L45.235 34.815C45.015 34.245 44.695 33.815 44.275 33.525C43.865 33.225 43.33 33.075 42.67 33.075C42 33.075 41.41 33.235 40.9 33.555C40.39 33.865 39.99 34.315 39.7 34.905C39.42 35.495 39.28 36.21 39.28 37.05C39.28 37.88 39.415 38.595 39.685 39.195C39.955 39.785 40.34 40.24 40.84 40.56C41.34 40.87 41.93 41.025 42.61 41.025C43.27 41.025 43.845 40.86 44.335 40.53C44.825 40.19 45.18 39.685 45.4 39.015L46.6 39.465ZM52.8932 31.95C53.8332 31.95 54.6432 32.16 55.3232 32.58C56.0132 32.99 56.5432 33.575 56.9132 34.335C57.2932 35.095 57.4832 36 57.4832 37.05C57.4832 38.1 57.2932 39.005 56.9132 39.765C56.5432 40.525 56.0132 41.115 55.3232 41.535C54.6432 41.945 53.8332 42.15 52.8932 42.15C51.9532 42.15 51.1382 41.945 50.4482 41.535C49.7682 41.115 49.2382 40.525 48.8582 39.765C48.4882 39.005 48.3032 38.1 48.3032 37.05C48.3032 36 48.4882 35.095 48.8582 34.335C49.2382 33.575 49.7682 32.99 50.4482 32.58C51.1382 32.16 51.9532 31.95 52.8932 31.95ZM52.8932 33.075C52.2132 33.075 51.6232 33.235 51.1232 33.555C50.6232 33.865 50.2382 34.32 49.9682 34.92C49.6982 35.51 49.5632 36.22 49.5632 37.05C49.5632 37.88 49.6982 38.595 49.9682 39.195C50.2382 39.785 50.6232 40.24 51.1232 40.56C51.6232 40.87 52.2132 41.025 52.8932 41.025C53.5832 41.025 54.1732 40.87 54.6632 40.56C55.1632 40.24 55.5482 39.785 55.8182 39.195C56.0882 38.595 56.2232 37.88 56.2232 37.05C56.2232 36.22 56.0882 35.51 55.8182 34.92C55.5482 34.32 55.1632 33.865 54.6632 33.555C54.1732 33.235 53.5832 33.075 52.8932 33.075ZM67.8939 32.1V42H66.4089L62.2689 35.37L61.2189 33.51H61.2039L61.2639 35.01V42H60.1239V32.1H61.6089L65.7339 38.7L66.7989 40.605H66.8139L66.7539 39.09V32.1H67.8939ZM74.3195 31.95C75.1895 31.95 75.9395 32.13 76.5695 32.49C77.1995 32.84 77.7245 33.36 78.1445 34.05L77.1395 34.83C76.7695 34.19 76.3495 33.74 75.8795 33.48C75.4195 33.21 74.8595 33.075 74.1995 33.075C73.6695 33.075 73.2295 33.15 72.8795 33.3C72.5395 33.45 72.2895 33.65 72.1295 33.9C71.9695 34.14 71.8895 34.415 71.8895 34.725C71.8895 35.075 71.9995 35.385 72.2195 35.655C72.4395 35.915 72.8795 36.12 73.5395 36.27L75.6845 36.75C76.6345 36.96 77.2945 37.28 77.6645 37.71C78.0445 38.13 78.2345 38.655 78.2345 39.285C78.2345 39.845 78.0745 40.345 77.7545 40.785C77.4445 41.215 77.0045 41.55 76.4345 41.79C75.8645 42.03 75.1945 42.15 74.4245 42.15C73.7045 42.15 73.0695 42.055 72.5195 41.865C71.9795 41.665 71.5145 41.4 71.1245 41.07C70.7345 40.74 70.4145 40.37 70.1645 39.96L71.2145 39.105C71.4045 39.485 71.6495 39.82 71.9495 40.11C72.2495 40.4 72.6095 40.625 73.0295 40.785C73.4595 40.945 73.9495 41.025 74.4995 41.025C75.0095 41.025 75.4495 40.965 75.8195 40.845C76.1995 40.715 76.4895 40.53 76.6895 40.29C76.8895 40.04 76.9895 39.74 76.9895 39.39C76.9895 39.07 76.8845 38.785 76.6745 38.535C76.4645 38.275 76.0695 38.08 75.4895 37.95L73.1645 37.425C72.5545 37.285 72.0595 37.095 71.6795 36.855C71.3095 36.605 71.0395 36.315 70.8695 35.985C70.7095 35.645 70.6295 35.28 70.6295 34.89C70.6295 34.36 70.7745 33.875 71.0645 33.435C71.3645 32.985 71.7895 32.625 72.3395 32.355C72.8995 32.085 73.5595 31.95 74.3195 31.95ZM88.3239 32.1V38.31C88.3239 39.58 87.9889 40.54 87.3189 41.19C86.6489 41.83 85.6889 42.15 84.4389 42.15C83.1989 42.15 82.2389 41.83 81.5589 41.19C80.8889 40.54 80.5539 39.58 80.5539 38.31V32.1H81.7539V38.01C81.7539 39.04 81.9689 39.8 82.3989 40.29C82.8389 40.78 83.5189 41.025 84.4389 41.025C85.3589 41.025 86.0339 40.78 86.4639 40.29C86.9039 39.8 87.1239 39.04 87.1239 38.01V32.1H88.3239ZM92.569 40.875H98.239V42H91.369V32.1H92.569V40.875ZM105.36 32.1V33.225H101.91V42H100.71V33.225H97.2603V32.1H105.36ZM119.925 32.1V42H118.44L114.3 35.37L113.25 33.51H113.235L113.295 35.01V42H112.155V32.1H113.64L117.765 38.7L118.83 40.605H118.845L118.785 39.09V32.1H119.925ZM127.161 31.95C128.101 31.95 128.911 32.16 129.591 32.58C130.281 32.99 130.811 33.575 131.181 34.335C131.561 35.095 131.751 36 131.751 37.05C131.751 38.1 131.561 39.005 131.181 39.765C130.811 40.525 130.281 41.115 129.591 41.535C128.911 41.945 128.101 42.15 127.161 42.15C126.221 42.15 125.406 41.945 124.716 41.535C124.036 41.115 123.506 40.525 123.126 39.765C122.756 39.005 122.571 38.1 122.571 37.05C122.571 36 122.756 35.095 123.126 34.335C123.506 33.575 124.036 32.99 124.716 32.58C125.406 32.16 126.221 31.95 127.161 31.95ZM127.161 33.075C126.481 33.075 125.891 33.235 125.391 33.555C124.891 33.865 124.506 34.32 124.236 34.92C123.966 35.51 123.831 36.22 123.831 37.05C123.831 37.88 123.966 38.595 124.236 39.195C124.506 39.785 124.891 40.24 125.391 40.56C125.891 40.87 126.481 41.025 127.161 41.025C127.851 41.025 128.441 40.87 128.931 40.56C129.431 40.24 129.816 39.785 130.086 39.195C130.356 38.595 130.491 37.88 130.491 37.05C130.491 36.22 130.356 35.51 130.086 34.92C129.816 34.32 129.431 33.865 128.931 33.555C128.441 33.235 127.851 33.075 127.161 33.075ZM136.119 42L133.194 32.1H134.439L136.884 40.905L139.209 32.1H140.574L142.899 40.935L145.344 32.1H146.529L143.619 42H142.134L140.379 35.58L139.869 33.345H139.854L139.344 35.58L137.604 42H136.119Z" fill="#F4F4F4"/>
</g>
</g>
<defs>
<filter id="filter0_d_2013_3864" x="2" y="7" width="181" height="76" filterUnits="userSpaceOnUse" color-interpolation-filters="sRGB">
<feFlood flood-opacity="0" result="BackgroundImageFix"/>
<feColorMatrix in="SourceAlpha" type="matrix" values="0 0 0 0 0 0 0 0 0 0 0 0 0 0 0 0 0 0 127 0" result="hardAlpha"/>
<feOffset dy="8"/>
<feGaussianBlur stdDeviation="7.5"/>
<feComposite in2="hardAlpha" operator="out"/>
<feColorMatrix type="matrix" values="0 0 0 0 0 0 0 0 0 0 0 0 0 0 0 0 0 0 0.2 0"/>
<feBlend mode="normal" in2="BackgroundImageFix" result="effect1_dropShadow_2013_3864"/>
<feBlend mode="normal" in="SourceGraphic" in2="effect1_dropShadow_2013_3864" result="shape"/>
</filter>
<filter id="filter1_di_2013_3864" x="0" y="0" width="185" height="80" filterUnits="userSpaceOnUse" color-interpolation-filters="sRGB">
<feFlood flood-opacity="0" result="BackgroundImageFix"/>
<feColorMatrix in="SourceAlpha" type="matrix" values="0 0 0 0 0 0 0 0 0 0 0 0 0 0 0 0 0 0 127 0" result="hardAlpha"/>
<feOffset dy="3"/>
<feGaussianBlur stdDeviation="8.5"/>
<feComposite in2="hardAlpha" operator="out"/>
<feColorMatrix type="matrix" values="0 0 0 0 0 0 0 0 0 0 0 0 0 0 0 0 0 0 0.25 0"/>
<feBlend mode="normal" in2="BackgroundImageFix" result="effect1_dropShadow_2013_3864"/>
<feBlend mode="normal" in="SourceGraphic" in2="effect1_dropShadow_2013_3864" result="shape"/>
<feColorMatrix in="SourceAlpha" type="matrix" values="0 0 0 0 0 0 0 0 0 0 0 0 0 0 0 0 0 0 127 0" result="hardAlpha"/>
<feOffset dx="3" dy="4"/>
<feGaussianBlur stdDeviation="2"/>
<feComposite in2="hardAlpha" operator="arithmetic" k2="-1" k3="1"/>
<feColorMatrix type="matrix" values="0 0 0 0 0 0 0 0 0 0 0 0 0 0 0 0 0 0 0.25 0"/>
<feBlend mode="normal" in2="shape" result="effect2_innerShadow_2013_3864"/>
</filter>
</defs>
</svg>
