<svg width="14" height="14" viewBox="0 0 14 14" fill="none" xmlns="http://www.w3.org/2000/svg">
<path id="Vector" fill-rule="evenodd" clip-rule="evenodd" d="M12.6023 9.32007C13.0242 9.09696 13.3773 8.76305 13.6236 8.35425C13.8699 7.94545 14 7.47724 14 7C14 6.52276 13.8699 6.05455 13.6236 5.64575C13.3773 5.23695 13.0242 4.90303 12.6023 4.67993C12.743 4.22387 12.7566 3.73811 12.6417 3.2749C12.5268 2.81168 12.2878 2.38856 11.9503 2.05106C11.6129 1.71355 11.1898 1.47443 10.7266 1.35944C10.2634 1.24444 9.77761 1.25792 9.32149 1.39841C9.09845 0.976313 8.7645 0.623039 8.35558 0.376627C7.94667 0.130216 7.47828 0 7.00085 0C6.52342 0 6.05504 0.130216 5.64612 0.376627C5.2372 0.623039 4.90325 0.976313 4.68021 1.39841C4.22412 1.2578 3.73833 1.24419 3.27509 1.35906C2.81185 1.47394 2.3887 1.71294 2.05118 2.05036C1.71365 2.38777 1.47452 2.81083 1.35952 3.27401C1.24452 3.73719 1.25799 4.22296 1.3985 4.67906C0.976371 4.90208 0.623076 5.23602 0.37665 5.64491C0.130223 6.0538 0 6.52216 0 6.99956C0 7.47696 0.130223 7.94532 0.37665 8.35421C0.623076 8.7631 0.976371 9.09704 1.3985 9.32007C1.25787 9.77612 1.24426 10.2619 1.35914 10.7251C1.47402 11.1883 1.71304 11.6114 2.05048 11.9489C2.38791 12.2864 2.811 12.5256 3.2742 12.6406C3.73741 12.7556 4.22321 12.7421 4.67933 12.6016C4.90237 13.0237 5.23633 13.377 5.64525 13.6234C6.05416 13.8698 6.52255 14 6.99998 14C7.4774 14 7.94579 13.8698 8.35471 13.6234C8.76362 13.377 9.09758 13.0237 9.32062 12.6016C9.7767 12.7422 10.2625 12.7558 10.7257 12.6409C11.189 12.5261 11.6121 12.2871 11.9496 11.9496C12.2872 11.6122 12.5263 11.1892 12.6413 10.726C12.7563 10.2628 12.7428 9.77616 12.6023 9.32007ZM10.3749 5.41917C10.4773 5.27833 10.5196 5.10257 10.4924 4.93055C10.4653 4.75853 10.3709 4.60434 10.2301 4.5019C10.1603 4.45118 10.0813 4.41469 9.99744 4.39452C9.91359 4.37434 9.8266 4.37088 9.74142 4.38432C9.56939 4.41147 9.41519 4.50585 9.31275 4.64669L6.26551 8.83716L4.62071 7.19246C4.56016 7.12983 4.48773 7.07987 4.40766 7.04553C4.32759 7.01118 4.24148 6.99312 4.15435 6.9924C4.06722 6.99169 3.98083 7.00833 3.9002 7.04136C3.81958 7.07439 3.74634 7.12314 3.68476 7.18477C3.62318 7.24641 3.57449 7.31969 3.54154 7.40034C3.50858 7.48099 3.49202 7.5674 3.49282 7.65452C3.49362 7.74164 3.51176 7.82772 3.54619 7.90776C3.58061 7.98779 3.63063 8.06017 3.69333 8.12067L5.88056 10.3078C5.94759 10.3748 6.02838 10.4266 6.11734 10.4594C6.2063 10.4923 6.30133 10.5055 6.39587 10.4981C6.49042 10.4907 6.58224 10.4629 6.66501 10.4166C6.74777 10.3703 6.81952 10.3066 6.8753 10.2299L10.3749 5.41917Z" fill="#F3B86A"/>
</svg>
