<svg width="266" height="449" viewBox="0 0 266 449" fill="none" xmlns="http://www.w3.org/2000/svg">
<path d="M567.156 197.601C539.963 153.079 499.14 122.496 452.197 111.478C360.051 89.8546 310.022 55.0628 273.496 29.6622C236.837 4.16302 214.7 -11.224 179.357 10.0109C129.864 39.7436 129.603 80.1923 129.336 123.013C129.061 165.982 128.771 210.418 80.6527 250.294C43.4656 281.111 18.7412 310.295 7.15597 337.027C-3.06844 360.646 -2.32485 381.253 9.31239 396.627C28.6161 422.114 74.5776 428.911 126.428 413.943C182.272 397.811 218.567 408.582 264.529 422.207C305.322 434.303 354.853 449 433.123 449C443.965 449 455.379 448.717 467.381 448.106C505.862 446.147 537.011 433.724 559.973 411.189C580.377 391.162 593.375 363.573 597.554 331.394C603.28 287.372 592.2 238.604 567.156 197.601ZM595.182 331.185C586.296 399.536 538.468 442.505 467.232 446.128C369.13 451.12 311.568 434.057 265.332 420.346C235.514 411.503 209.733 403.856 180.079 403.856C163.586 403.856 145.888 406.228 125.64 412.076C74.8899 426.73 30.0215 420.253 11.335 395.574C-13.4416 362.852 13.1047 309.069 82.3407 251.693C131.158 211.244 131.44 166.395 131.715 123.02C131.99 80.7161 132.243 40.7603 180.755 11.6131C214.589 -8.71598 234.971 5.45092 271.964 31.1781C308.653 56.6958 358.905 91.6416 451.542 113.382C497.838 124.246 538.141 154.471 565.029 198.494C589.865 239.165 600.863 287.526 595.182 331.185ZM444.032 117.48C356.838 97.0212 309.501 64.0966 274.931 40.0578C240.213 15.9143 219.259 1.33457 185.752 21.4665C138.891 49.6216 138.646 87.9135 138.385 128.448C138.125 169.107 137.857 211.151 92.3346 248.876C25.9912 303.856 0.746195 355.655 24.8089 387.433C43.0938 411.577 86.6312 418.016 135.723 403.843C188.548 388.586 222.895 398.772 266.38 411.663C304.995 423.113 351.878 437.021 425.963 437.021C436.232 437.021 447.029 436.756 458.391 436.176C494.827 434.322 524.325 422.558 546.068 401.218C565.386 382.257 577.693 356.136 581.649 325.676C587.07 283.995 576.577 237.834 552.872 199.018C527.129 156.869 488.477 127.912 444.032 117.48ZM579.277 325.46C570.874 390.12 525.626 430.772 458.242 434.205C365.397 438.925 310.944 422.78 267.183 409.802C238.964 401.434 214.552 394.193 186.481 394.193C170.858 394.193 154.105 396.436 134.935 401.976C86.9287 415.841 44.4992 409.716 26.8314 386.38C3.40083 355.439 28.5194 304.558 94.0225 250.275C140.237 211.977 140.512 169.52 140.772 128.461C141.033 88.4373 141.27 50.6322 187.158 23.0625C219.147 3.84258 238.414 17.2454 273.4 41.5737C308.133 65.7296 355.693 98.8083 443.385 119.384C487.175 129.662 525.307 158.261 550.745 199.912C574.25 238.394 584.653 284.155 579.277 325.46ZM435.867 123.488C353.626 104.188 308.973 73.1304 276.367 50.4596C243.589 27.6595 223.802 13.8993 192.155 32.9159C147.918 59.4934 147.688 95.6286 147.442 133.884C147.197 172.231 146.944 211.885 104.016 247.459C41.4059 299.345 17.5886 348.236 40.3054 378.239C57.5642 401.04 98.6626 407.128 145.018 393.744C194.831 379.355 227.222 388.962 268.232 401.126C304.66 411.928 348.911 425.048 418.802 425.048C428.491 425.048 438.678 424.795 449.401 424.253C483.792 422.503 511.639 411.398 532.163 391.254C550.396 373.353 562.01 348.704 565.743 319.951C570.859 280.624 560.962 237.063 538.587 200.435C514.294 160.658 477.813 133.335 435.867 123.488ZM563.371 319.742C555.326 381.623 513.729 418.99 449.252 422.275C361.679 426.736 310.312 411.497 269.035 399.259C242.407 391.365 219.37 384.531 192.883 384.531C178.145 384.531 162.329 386.645 144.23 391.876C98.9749 404.946 58.977 399.179 42.3279 377.186C20.2432 348.02 43.9341 300.041 105.704 248.852C149.324 212.704 149.576 172.644 149.829 133.896C150.067 96.1524 150.298 60.504 193.553 34.5119C223.69 16.4073 241.856 29.0398 274.835 51.9694C307.605 74.7634 352.481 105.969 435.22 125.386C476.512 135.079 512.472 162.051 536.461 201.329C558.627 237.624 568.435 280.784 563.371 319.742ZM427.71 129.496C350.414 111.355 308.445 82.1642 277.802 60.8553C246.965 39.4108 228.353 26.464 198.557 44.3652C156.945 69.3653 156.73 103.344 156.499 139.325C156.269 175.355 156.031 212.618 115.698 246.036C56.8206 294.834 34.4235 340.816 55.8018 369.039C72.0494 390.502 110.716 396.233 154.313 383.644C201.115 370.124 231.55 379.151 270.091 390.576C304.333 400.732 345.937 413.068 411.641 413.068C420.75 413.068 430.328 412.834 440.411 412.323C472.757 410.677 498.954 400.232 518.257 381.284C535.405 364.448 546.328 341.266 549.838 314.233C554.649 277.253 545.339 236.293 524.303 201.853C501.46 164.448 467.15 138.752 427.71 129.496ZM547.466 314.023C539.911 372.157 500.835 407.263 440.262 410.345C357.954 414.535 309.68 400.22 270.894 388.715C245.849 381.29 224.196 374.869 199.286 374.869C185.425 374.869 170.546 376.859 153.525 381.777C111.021 394.046 73.4548 388.635 57.8244 367.992C37.0782 340.601 59.3488 295.53 117.386 247.434C158.41 213.438 158.648 175.768 158.886 139.337C159.109 103.874 159.325 70.3759 199.955 45.9674C228.241 28.972 245.299 40.8343 276.27 62.3712C307.077 83.7971 349.268 113.142 427.056 131.394C510.732 151.033 556.872 241.679 547.466 314.023ZM419.545 135.498C347.201 118.521 307.917 91.2041 279.237 71.2571C250.333 51.156 232.896 39.0288 204.959 55.8146C165.973 79.2371 165.764 111.065 165.556 144.76C165.333 178.479 165.11 213.345 127.38 244.618C72.2353 290.317 51.2659 333.397 71.2983 359.845C86.5271 379.965 122.762 385.338 163.608 373.544C207.391 360.893 235.878 369.341 271.942 380.033C304.006 389.541 342.963 401.095 404.488 401.095C413.017 401.095 421.977 400.873 431.421 400.393C461.729 398.852 486.261 389.066 504.352 371.313C520.414 355.55 530.646 333.828 533.932 308.508C538.439 273.876 529.724 235.523 510.026 203.27C488.625 168.238 456.495 144.168 419.545 135.498ZM531.56 308.298C524.489 362.686 487.934 395.537 431.272 398.421C354.25 402.34 309.055 388.943 272.745 378.172C249.292 371.221 229.014 365.206 205.688 365.206C192.697 365.206 178.762 367.074 162.82 371.677C123.067 383.157 87.9325 378.104 73.3135 358.798C53.9206 333.181 74.7635 291.02 129.068 246.017C167.497 214.177 167.72 178.892 167.943 144.772C168.151 111.589 168.352 80.2477 206.357 57.4168C232.785 41.5368 248.742 52.6287 277.705 72.773C306.549 92.8309 346.056 120.308 418.891 137.402C497.191 155.778 540.365 240.601 531.56 308.298ZM411.381 141.506C343.989 125.688 307.389 100.238 280.672 81.6589C253.709 62.9073 237.439 51.5935 211.354 67.264C175 89.109 174.807 118.78 174.606 150.201C174.405 181.604 174.197 214.078 139.062 243.195C87.6499 285.806 68.1083 325.978 86.7874 350.651C101.005 369.421 134.801 374.444 172.903 363.438C213.674 351.662 240.206 359.531 273.794 369.489C303.679 378.357 339.981 389.122 397.327 389.122C405.276 389.122 413.626 388.912 422.431 388.463C450.687 387.027 473.575 377.901 490.44 361.349C505.416 346.646 514.956 326.397 518.027 302.789C522.221 270.506 514.101 234.753 495.741 204.687C475.791 172.028 445.831 149.591 411.381 141.506ZM515.655 302.574C509.074 353.221 475.04 383.804 422.282 386.491C350.51 390.139 308.423 377.66 274.597 367.628C252.743 361.152 233.833 355.544 212.083 355.544C199.977 355.544 186.987 357.282 172.122 361.577C135.106 372.262 102.41 367.56 88.81 349.604C70.7629 325.762 90.1782 286.509 140.75 244.6C176.576 214.904 176.792 182.016 176.993 150.213C177.193 119.31 177.379 90.1196 212.76 68.8661C237.335 54.1015 252.185 64.4232 279.14 83.1748C306.028 101.871 342.844 127.475 410.734 143.404C483.651 160.523 523.857 239.522 515.655 302.574ZM403.216 147.508C340.777 132.854 306.869 109.272 282.107 92.0545C257.093 74.6586 241.99 64.1582 217.756 78.7133C184.027 98.9808 183.849 126.501 183.663 155.636C183.477 184.734 183.283 214.812 150.744 241.778C103.057 281.296 84.9433 318.559 102.284 341.463C115.475 358.884 146.84 363.549 182.198 353.344C219.958 342.437 244.533 349.721 275.645 358.952C303.352 367.166 337.007 377.143 390.166 377.143C397.535 377.143 405.283 376.952 413.441 376.539C439.652 375.202 460.889 366.741 476.534 351.378C490.425 337.741 499.273 318.959 502.121 297.065C506.01 267.135 498.478 233.982 481.457 206.105C462.956 175.817 435.168 155.008 403.216 147.508ZM499.749 296.855C493.652 343.756 462.138 372.077 413.292 374.561C346.8 377.944 307.791 366.383 276.448 357.085C256.185 351.076 238.651 345.876 218.485 345.876C207.257 345.876 195.203 347.49 181.417 351.471C147.152 361.367 116.888 357.023 104.306 340.41C87.5979 318.343 105.593 281.998 152.432 243.176C185.663 215.637 185.856 185.141 186.05 155.648C186.228 127.025 186.407 99.9914 219.162 80.3155C241.886 66.6601 255.628 76.2238 280.575 93.5704C305.501 110.905 339.631 134.641 402.569 149.412C470.102 165.261 507.341 238.444 499.749 296.855ZM395.051 153.516C337.564 140.021 306.341 118.312 283.542 102.456C260.461 86.4038 246.534 76.7168 224.159 90.1627C193.054 108.853 192.891 134.216 192.72 161.077C192.549 187.852 192.37 215.545 162.426 240.36C118.472 276.785 101.786 311.139 117.78 332.263C129.96 348.347 158.894 352.654 191.493 343.238C226.248 333.206 248.868 339.911 277.504 348.402C303.024 355.975 334.032 365.169 383.005 365.169C389.794 365.169 396.933 364.991 404.45 364.609C428.625 363.376 448.196 355.575 462.629 341.408C475.434 328.837 483.591 311.527 486.216 291.346C489.8 263.764 482.862 233.212 467.173 207.528C450.122 179.607 424.513 160.43 395.051 153.516ZM483.844 291.131C478.237 334.284 449.237 360.351 404.302 362.637C343.074 365.749 307.166 355.1 278.3 346.541C259.628 341.001 243.47 336.213 224.888 336.213C214.537 336.213 203.427 337.698 190.712 341.371C159.199 350.473 131.366 346.486 119.803 331.216C104.44 310.924 121.008 277.481 164.114 241.759C194.75 216.371 194.928 188.265 195.099 161.09C195.27 134.746 195.434 109.869 225.564 91.7649C246.429 79.231 259.071 88.0183 282.01 103.972C304.973 119.938 336.419 141.808 394.405 155.414C456.561 170.006 490.834 237.372 483.844 291.131ZM386.894 159.518C334.352 147.188 305.813 127.345 284.977 112.852C263.844 98.1551 251.084 89.2815 230.561 101.612C202.082 118.725 201.933 141.938 201.769 166.512C201.613 190.982 201.449 216.278 174.108 238.943C133.894 272.268 118.628 303.72 133.277 323.069C144.438 337.809 170.932 341.759 200.788 333.138C232.524 323.975 253.189 330.107 279.356 337.865C302.697 344.785 331.05 353.196 375.844 353.196C382.053 353.196 388.582 353.03 395.46 352.679C417.59 351.557 435.51 344.409 448.724 331.438C460.443 319.933 467.909 304.09 470.311 285.622C476.802 235.702 444.828 173.118 386.894 159.518ZM467.938 285.412C462.815 324.819 436.343 348.618 395.312 350.707C339.356 353.554 306.534 343.817 280.159 335.998C263.071 330.932 248.288 326.551 231.29 326.551C221.809 326.551 211.644 327.913 200.007 331.271C171.245 339.578 145.844 335.948 135.299 322.022C121.283 303.504 136.422 272.971 175.796 240.336C203.836 217.104 204 191.389 204.156 166.525C204.312 142.461 204.461 119.735 231.967 103.214C250.98 91.7895 262.506 99.8066 283.446 114.368C304.445 128.972 333.207 148.975 386.24 161.416C443.021 174.745 474.326 236.293 467.938 285.412ZM378.73 165.526C331.132 154.354 305.285 136.379 286.412 123.254C267.22 109.906 255.628 101.846 236.964 113.061C211.101 128.596 210.967 149.659 210.826 171.954C210.685 194.107 210.536 217.012 185.789 237.519C149.301 267.757 135.463 296.301 148.773 313.875C158.909 327.272 182.979 330.864 210.083 323.038C238.808 314.744 257.516 320.296 281.207 327.315C302.37 333.594 328.076 341.217 368.684 341.217C374.313 341.217 380.232 341.069 386.463 340.755C406.555 339.732 422.817 333.243 434.811 321.473C445.452 311.028 452.226 296.652 454.405 279.903C460.294 234.623 431.287 177.857 378.73 165.526ZM452.033 279.687C447.393 315.354 423.442 336.891 386.322 338.777C335.646 341.359 305.902 332.541 282.01 325.454C266.514 320.863 253.114 316.889 237.685 316.889C229.089 316.889 219.861 318.121 209.302 321.171C183.283 328.683 160.321 325.411 150.796 312.828C138.118 296.085 151.829 268.46 187.477 238.918C212.916 217.837 213.064 194.52 213.213 171.966C213.354 150.183 213.481 129.613 238.361 114.664C255.524 104.354 265.949 111.607 284.881 124.77C303.917 138.012 329.994 156.141 378.075 167.431C429.48 179.49 457.818 235.215 452.033 279.687ZM370.565 171.528C327.927 161.521 304.764 145.413 287.848 133.656C270.596 121.652 260.178 114.411 243.366 124.511C220.129 138.468 220.01 157.374 219.883 177.389C219.757 197.231 219.623 217.745 197.471 236.102C164.716 263.247 152.305 288.881 164.27 304.681C173.394 316.735 195.025 319.97 219.385 312.939C245.091 305.513 261.852 310.486 283.059 316.772C302.043 322.404 325.102 329.238 361.523 329.238C366.579 329.238 371.889 329.108 377.48 328.825C411.463 327.093 434.276 306.665 438.5 274.178C443.779 233.545 417.746 182.602 370.565 171.528ZM436.128 273.969C431.978 305.883 410.548 325.164 377.332 326.853C331.913 329.158 305.27 321.258 283.862 314.911C269.957 310.788 257.933 307.22 244.087 307.22C236.369 307.22 228.085 308.335 218.597 311.071C195.33 317.788 174.799 314.874 166.285 303.634C154.96 288.666 167.244 263.943 199.159 237.501C222.002 218.571 222.136 197.638 222.27 177.401C222.389 157.898 222.508 139.485 244.764 126.113C260.067 116.919 269.392 123.402 286.316 135.171C303.396 147.04 326.782 163.308 369.918 173.433C415.932 184.235 441.303 234.136 436.128 273.969ZM362.4 177.537C324.708 168.688 304.236 154.447 289.283 144.051C273.972 133.403 264.729 126.97 249.761 135.96C229.156 148.34 229.052 165.095 228.933 182.83C228.821 200.355 228.702 218.478 209.153 234.679C180.131 258.73 169.14 281.462 179.759 295.487C187.871 306.197 207.071 309.081 228.672 302.839C251.367 296.288 266.172 300.676 284.91 306.234C301.716 311.213 322.12 317.264 354.362 317.264C358.838 317.264 363.538 317.147 368.483 316.895C398.621 315.36 418.846 297.256 422.594 268.46C427.271 232.466 404.205 187.347 362.4 177.537ZM420.222 268.244C416.556 296.418 397.647 313.432 368.342 314.923C328.202 316.963 304.645 309.981 285.721 304.367C273.407 300.719 262.751 297.558 250.489 297.558C243.648 297.558 236.302 298.544 227.892 300.972C207.376 306.893 189.277 304.33 181.781 294.44C171.802 281.246 182.659 259.432 210.841 236.077C231.089 219.304 231.208 200.762 231.327 182.836C231.431 165.619 231.535 149.357 251.166 137.562C264.618 129.478 272.834 135.196 287.751 145.567C302.868 156.08 323.57 170.475 361.753 179.435C402.391 188.974 424.795 233.058 420.222 268.244ZM354.236 183.539C321.495 175.854 303.708 163.487 290.718 154.453C277.802 145.468 269.273 139.54 256.163 147.41C238.183 158.218 238.094 172.81 237.99 188.265C237.893 203.479 237.796 219.212 220.835 233.261C195.545 254.219 185.983 274.043 195.255 286.293C202.349 295.654 219.11 298.186 237.975 292.739C257.658 287.057 270.5 290.866 286.769 295.691C301.388 300.023 319.145 305.291 347.209 305.291C351.098 305.291 355.187 305.187 359.5 304.971C385.779 303.634 403.424 287.84 406.689 262.735C410.764 231.388 390.657 192.086 354.236 183.539ZM404.317 262.526C401.141 286.953 384.753 301.705 359.352 302.993C324.484 304.774 304.013 298.704 287.572 293.823C276.85 290.644 267.57 287.895 256.884 287.895C250.928 287.895 244.518 288.752 237.187 290.872C219.422 296.005 203.755 293.793 197.278 285.246C188.637 273.833 198.074 254.921 222.523 234.66C240.176 220.037 240.28 203.892 240.377 188.277C240.473 173.34 240.562 159.229 257.568 149.012C269.169 142.048 276.277 146.991 289.186 155.969C302.34 165.114 320.358 177.641 353.589 185.443C388.85 193.719 408.287 231.98 404.317 262.526ZM346.071 189.541C318.283 183.021 303.181 172.521 292.153 164.849C281.111 157.177 273.823 152.099 262.565 158.859C247.21 168.09 247.128 180.531 247.047 193.7C246.965 206.604 246.876 219.945 232.517 231.844C210.96 249.708 202.825 266.63 210.752 277.099C216.82 285.116 231.156 287.292 247.27 282.639C263.934 277.82 274.827 281.055 288.621 285.147C301.061 288.832 316.164 293.312 340.048 293.312C343.357 293.312 346.837 293.226 350.503 293.041C372.937 291.901 387.995 278.43 390.783 257.01C394.256 230.31 377.116 196.83 346.071 189.541ZM388.411 256.801C385.719 277.481 371.851 289.972 350.362 291.069C320.766 292.579 303.381 287.421 289.424 283.286C280.293 280.575 272.396 278.233 263.287 278.233C258.201 278.233 252.743 278.96 246.482 280.772C231.468 285.11 218.232 283.255 212.774 276.046C205.48 266.408 213.488 250.411 234.205 233.243C249.263 220.764 249.352 206.394 249.434 193.712C249.515 181.055 249.59 169.101 263.971 160.461C273.712 154.607 279.363 158.538 290.621 166.364C301.812 174.147 317.145 184.808 345.424 191.445C375.309 198.463 391.78 230.901 388.411 256.801Z" fill="url(#paint0_linear_2026_4934)"/>
<defs>
<linearGradient id="paint0_linear_2026_4934" x1="702.18" y1="-65.3667" x2="233.523" y2="370.025" gradientUnits="userSpaceOnUse">
<stop stop-color="#727272"/>
<stop offset="1" stop-color="#727272" stop-opacity="0"/>
</linearGradient>
</defs>
</svg>
