<svg width="32" height="31" viewBox="0 0 32 31" fill="none" xmlns="http://www.w3.org/2000/svg">
<g id="elements">
<path id="Vector 3591" d="M11.6244 30.0833L11.2589 24.9662C11.0624 22.2151 13.2413 19.875 15.9994 19.875C18.7575 19.875 20.9364 22.2151 20.7399 24.9662L20.3744 30.0833" stroke="#DEA000" stroke-width="1.5"/>
<path id="Rectangle 1147" d="M1.92944 17.2696C1.41462 13.9195 1.15721 12.2445 1.79057 10.7595C2.42393 9.27457 3.82911 8.25857 6.63948 6.22657L8.73927 4.70835C12.2353 2.18058 13.9834 0.916687 16.0003 0.916687C18.0173 0.916687 19.7653 2.18058 23.2614 4.70835L25.3612 6.22657C28.1715 8.25857 29.5767 9.27457 30.2101 10.7595C30.8434 12.2445 30.586 13.9195 30.0712 17.2696L29.6322 20.1264C28.9024 24.8755 28.5375 27.2501 26.8343 28.6667C25.1311 30.0834 22.6411 30.0834 17.6611 30.0834H14.3396C9.35956 30.0834 6.86957 30.0834 5.16637 28.6667C3.46316 27.2501 3.09826 24.8755 2.36845 20.1264L1.92944 17.2696Z" stroke="#DEA000" stroke-width="1.5" stroke-linejoin="round"/>
</g>
</svg>
