<svg width="22" height="22" viewBox="0 0 22 22" fill="none" xmlns="http://www.w3.org/2000/svg">
<rect width="22" height="21.5802" rx="10.7901" fill="#F3B86A"/>
<path d="M7.12547 10.4376C7.12084 10.3843 7.12734 10.3307 7.14456 10.28C7.16177 10.2294 7.18932 10.1829 7.22546 10.1435C7.2616 10.104 7.30554 10.0726 7.35449 10.051C7.40344 10.0295 7.45634 10.0183 7.50982 10.0183H8.24668C8.34902 10.0183 8.44717 10.059 8.51954 10.1314C8.59191 10.2037 8.63257 10.3019 8.63257 10.4042V14.0702C8.63257 14.1725 8.59191 14.2707 8.51954 14.3431C8.44717 14.4154 8.34902 14.4561 8.24668 14.4561H7.82876C7.73217 14.4561 7.63909 14.4199 7.5679 14.3546C7.4967 14.2894 7.45257 14.1998 7.44422 14.1036L7.12547 10.4376ZM9.79024 10.2836C9.79024 10.1223 9.89057 9.978 10.0362 9.90931C10.3544 9.7592 10.8964 9.45763 11.1409 9.04993C11.4559 8.52435 11.5154 7.57487 11.525 7.35742C11.5264 7.32693 11.5256 7.29644 11.5296 7.26635C11.5819 6.88952 12.3091 7.32963 12.588 7.79502C12.7394 8.04739 12.7587 8.37906 12.7429 8.63819C12.7257 8.91526 12.6445 9.18287 12.5648 9.44875L12.395 10.0154H14.4898C14.5494 10.0154 14.6083 10.0292 14.6616 10.0558C14.715 10.0823 14.7615 10.1209 14.7975 10.1684C14.8335 10.216 14.858 10.2712 14.869 10.3298C14.8801 10.3884 14.8774 10.4487 14.8612 10.5061L13.8251 14.1751C13.8022 14.2561 13.7536 14.3273 13.6865 14.378C13.6194 14.4287 13.5376 14.4561 13.4535 14.4561H10.1761C10.0738 14.4561 9.97564 14.4154 9.90327 14.3431C9.8309 14.2707 9.79024 14.1725 9.79024 14.0702V10.2836Z" fill="#313131" stroke="#313131" stroke-width="0.771782" stroke-linecap="round" stroke-linejoin="round"/>
</svg>
