<svg width="20" height="30" viewBox="0 0 20 30" fill="none" xmlns="http://www.w3.org/2000/svg">
<path id="Vector" d="M10 14.2858C9.0528 14.2858 8.14439 13.9095 7.47462 13.2397C6.80485 12.57 6.42857 11.6616 6.42857 10.7144C6.42857 9.76715 6.80485 8.85875 7.47462 8.18897C8.14439 7.5192 9.0528 7.14293 10 7.14293C10.9472 7.14293 11.8556 7.5192 12.5254 8.18897C13.1952 8.85875 13.5714 9.76715 13.5714 10.7144C13.5714 11.1834 13.4791 11.6478 13.2996 12.0811C13.1201 12.5144 12.857 12.9081 12.5254 13.2397C12.1937 13.5714 11.8 13.8344 11.3667 14.0139C10.9334 14.1934 10.469 14.2858 10 14.2858ZM10 0.714355C7.34784 0.714355 4.8043 1.76792 2.92893 3.64329C1.05357 5.51865 0 8.06219 0 10.7144C0 18.2144 10 29.2858 10 29.2858C10 29.2858 20 18.2144 20 10.7144C20 8.06219 18.9464 5.51865 17.0711 3.64329C15.1957 1.76792 12.6522 0.714355 10 0.714355Z" fill="#AE1717"/>
</svg>
