<svg width="242" height="90" viewBox="0 0 242 90" fill="none" xmlns="http://www.w3.org/2000/svg">
<g clip-path="url(#clip0_2026_4867)">
<path fill-rule="evenodd" clip-rule="evenodd" d="M119.291 20.596C119.745 20.1429 120.359 19.8884 121 19.8884C121.641 19.8884 122.255 20.1429 122.709 20.596L136.38 34.2671C136.82 34.7229 137.063 35.3333 137.058 35.967C137.052 36.6006 136.798 37.2067 136.35 37.6548C135.902 38.1029 135.296 38.357 134.662 38.3625C134.029 38.368 133.418 38.1245 132.962 37.6842L121 25.7217L109.037 37.6842C108.582 38.1245 107.971 38.368 107.338 38.3625C106.704 38.357 106.098 38.1029 105.65 37.6548C105.202 37.2067 104.947 36.6006 104.942 35.967C104.936 35.3333 105.18 34.7229 105.62 34.2671L119.291 20.596Z" fill="#AE1717"/>
</g>
<path d="M3.75 83.7773V66.2773H13.475C14.9917 66.2773 16.2667 66.4523 17.3 66.8023C18.3333 67.1523 19.1167 67.644 19.65 68.2773C20.1833 68.9107 20.45 69.6607 20.45 70.5273C20.45 71.5273 20.1667 72.3773 19.6 73.0773C19.05 73.7607 18.2167 74.2357 17.1 74.5023L17.175 74.0523C17.9083 74.219 18.5917 74.4857 19.225 74.8523C19.875 75.219 20.3917 75.694 20.775 76.2773C21.175 76.8607 21.375 77.5773 21.375 78.4273C21.375 79.4773 21.15 80.344 20.7 81.0273C20.2667 81.7107 19.6833 82.2523 18.95 82.6523C18.2333 83.0523 17.4417 83.344 16.575 83.5273C15.725 83.694 14.8833 83.7773 14.05 83.7773H3.75ZM8.375 79.8023H14.1C14.5833 79.8023 15 79.744 15.35 79.6273C15.7167 79.5107 16.0083 79.3357 16.225 79.1023C16.4417 78.8523 16.55 78.5357 16.55 78.1523C16.55 77.719 16.4083 77.394 16.125 77.1773C15.8583 76.944 15.525 76.7773 15.125 76.6773C14.725 76.5773 14.3417 76.5273 13.975 76.5273H8.375V79.8023ZM8.375 73.0773H13.2C13.7 73.0773 14.125 73.0273 14.475 72.9273C14.8417 72.8107 15.125 72.644 15.325 72.4273C15.525 72.2107 15.625 71.944 15.625 71.6273C15.625 71.144 15.3917 70.794 14.925 70.5773C14.4583 70.3607 13.8583 70.2523 13.125 70.2523H8.375V73.0773ZM25.049 83.7773L33.424 66.2773H37.749L46.099 83.7773H41.099L36.599 74.4523C36.399 74.0357 36.224 73.6607 36.074 73.3273C35.924 72.9773 35.7907 72.644 35.674 72.3273C35.5574 72.0107 35.4407 71.694 35.324 71.3773C35.224 71.0607 35.1324 70.7357 35.049 70.4023L36.024 70.3773C35.924 70.744 35.8157 71.094 35.699 71.4273C35.599 71.7607 35.474 72.0857 35.324 72.4023C35.1907 72.719 35.049 73.044 34.899 73.3773C34.749 73.7107 34.5907 74.069 34.424 74.4523L29.949 83.7773H25.049ZM29.024 81.0773L30.549 77.5773H40.599L41.399 81.0773H29.024ZM60.0803 84.0273C58.5469 84.0273 57.1219 83.8107 55.8053 83.3773C54.5053 82.944 53.3636 82.3273 52.3803 81.5273C51.3969 80.7107 50.6303 79.7523 50.0803 78.6523C49.5469 77.5357 49.2803 76.294 49.2803 74.9273C49.2803 73.5773 49.5553 72.3523 50.1053 71.2523C50.6719 70.1357 51.4386 69.1773 52.4053 68.3773C53.3719 67.5607 54.5053 66.9357 55.8053 66.5023C57.1219 66.0523 58.5386 65.8273 60.0553 65.8273C61.1053 65.8273 62.1136 65.944 63.0803 66.1773C64.0636 66.394 64.9803 66.7023 65.8303 67.1023C66.6803 67.5023 67.4136 67.9607 68.0303 68.4773L65.2053 72.2523C64.8219 71.919 64.3719 71.6023 63.8553 71.3023C63.3553 71.0023 62.7719 70.7607 62.1053 70.5773C61.4553 70.394 60.6969 70.3023 59.8303 70.3023C59.1469 70.3023 58.4803 70.4023 57.8303 70.6023C57.1969 70.8023 56.6136 71.1023 56.0803 71.5023C55.5636 71.8857 55.1469 72.369 54.8303 72.9523C54.5303 73.5357 54.3803 74.2107 54.3803 74.9773C54.3803 75.744 54.5386 76.419 54.8553 77.0023C55.1886 77.569 55.6386 78.0523 56.2053 78.4523C56.7886 78.8357 57.4386 79.1273 58.1553 79.3273C58.8719 79.5107 59.6219 79.6023 60.4053 79.6023C61.2719 79.6023 62.0386 79.4857 62.7053 79.2523C63.3719 79.019 63.9553 78.7357 64.4553 78.4023C64.9553 78.069 65.4053 77.7607 65.8053 77.4773L68.1053 81.2523C67.6219 81.6523 66.9636 82.069 66.1303 82.5023C65.3136 82.9357 64.3803 83.3023 63.3303 83.6023C62.2969 83.8857 61.2136 84.0273 60.0803 84.0273ZM77.2393 79.5023L75.8143 75.6273L87.2643 66.2773H93.3143L77.2393 79.5023ZM73.9893 83.7773V66.2773H78.9393V83.7773H73.9893ZM87.6893 83.7773L80.5143 74.9523L83.4893 71.8273L93.5393 83.7773H87.6893ZM116.88 83.7773V70.5523H110.18V66.2773H128.705V70.5523H121.83V83.7773H116.88ZM143.554 84.0273C141.954 84.0273 140.488 83.8023 139.154 83.3523C137.821 82.8857 136.671 82.244 135.704 81.4273C134.738 80.6107 133.988 79.6523 133.454 78.5523C132.921 77.4357 132.654 76.2273 132.654 74.9273C132.654 73.6107 132.921 72.4023 133.454 71.3023C134.004 70.2023 134.763 69.244 135.729 68.4273C136.696 67.6107 137.838 66.9773 139.154 66.5273C140.488 66.0607 141.954 65.8273 143.554 65.8273C145.138 65.8273 146.588 66.0607 147.904 66.5273C149.238 66.9773 150.388 67.619 151.354 68.4523C152.338 69.269 153.096 70.2273 153.629 71.3273C154.163 72.4273 154.429 73.619 154.429 74.9023C154.429 76.2023 154.163 77.4107 153.629 78.5273C153.096 79.6273 152.338 80.594 151.354 81.4273C150.388 82.244 149.238 82.8857 147.904 83.3523C146.588 83.8023 145.138 84.0273 143.554 84.0273ZM143.554 79.4273C144.388 79.4273 145.163 79.319 145.879 79.1023C146.613 78.869 147.238 78.5523 147.754 78.1523C148.271 77.7357 148.671 77.2523 148.954 76.7023C149.238 76.1523 149.379 75.5607 149.379 74.9273C149.379 74.294 149.238 73.7023 148.954 73.1523C148.671 72.6023 148.271 72.1273 147.754 71.7273C147.238 71.3107 146.613 70.994 145.879 70.7773C145.163 70.544 144.388 70.4273 143.554 70.4273C142.704 70.4273 141.921 70.544 141.204 70.7773C140.488 70.994 139.863 71.3107 139.329 71.7273C138.813 72.1273 138.413 72.6023 138.129 73.1523C137.846 73.7023 137.704 74.294 137.704 74.9273C137.704 75.5607 137.846 76.1523 138.129 76.7023C138.413 77.2523 138.813 77.7357 139.329 78.1523C139.863 78.5523 140.488 78.869 141.204 79.1023C141.921 79.319 142.704 79.4273 143.554 79.4273ZM178.379 83.7773V70.5523H171.679V66.2773H190.204V70.5523H183.329V83.7773H178.379ZM205.053 84.0273C203.453 84.0273 201.987 83.8023 200.653 83.3523C199.32 82.8857 198.17 82.244 197.203 81.4273C196.237 80.6107 195.487 79.6523 194.953 78.5523C194.42 77.4357 194.153 76.2273 194.153 74.9273C194.153 73.6107 194.42 72.4023 194.953 71.3023C195.503 70.2023 196.262 69.244 197.228 68.4273C198.195 67.6107 199.337 66.9773 200.653 66.5273C201.987 66.0607 203.453 65.8273 205.053 65.8273C206.637 65.8273 208.087 66.0607 209.403 66.5273C210.737 66.9773 211.887 67.619 212.853 68.4523C213.837 69.269 214.595 70.2273 215.128 71.3273C215.662 72.4273 215.928 73.619 215.928 74.9023C215.928 76.2023 215.662 77.4107 215.128 78.5273C214.595 79.6273 213.837 80.594 212.853 81.4273C211.887 82.244 210.737 82.8857 209.403 83.3523C208.087 83.8023 206.637 84.0273 205.053 84.0273ZM205.053 79.4273C205.887 79.4273 206.662 79.319 207.378 79.1023C208.112 78.869 208.737 78.5523 209.253 78.1523C209.77 77.7357 210.17 77.2523 210.453 76.7023C210.737 76.1523 210.878 75.5607 210.878 74.9273C210.878 74.294 210.737 73.7023 210.453 73.1523C210.17 72.6023 209.77 72.1273 209.253 71.7273C208.737 71.3107 208.112 70.994 207.378 70.7773C206.662 70.544 205.887 70.4273 205.053 70.4273C204.203 70.4273 203.42 70.544 202.703 70.7773C201.987 70.994 201.362 71.3107 200.828 71.7273C200.312 72.1273 199.912 72.6023 199.628 73.1523C199.345 73.7023 199.203 74.294 199.203 74.9273C199.203 75.5607 199.345 76.1523 199.628 76.7023C199.912 77.2523 200.312 77.7357 200.828 78.1523C201.362 78.5523 201.987 78.869 202.703 79.1023C203.42 79.319 204.203 79.4273 205.053 79.4273ZM222.305 83.7773V66.2773H232.53C233.746 66.2773 234.838 66.5357 235.805 67.0523C236.771 67.5523 237.538 68.244 238.105 69.1273C238.688 70.0107 238.98 71.0273 238.98 72.1773C238.98 73.394 238.68 74.4857 238.08 75.4523C237.48 76.4023 236.655 77.1523 235.605 77.7023C234.571 78.2523 233.413 78.5273 232.13 78.5273H227.255V83.7773H222.305ZM227.18 74.2523H231.13C231.646 74.2523 232.096 74.1773 232.48 74.0273C232.88 73.8773 233.196 73.6523 233.43 73.3523C233.68 73.0357 233.805 72.669 233.805 72.2523C233.805 71.869 233.68 71.5523 233.43 71.3023C233.196 71.0523 232.88 70.869 232.48 70.7523C232.096 70.619 231.646 70.5523 231.13 70.5523H227.18V74.2523Z" fill="#AE1717"/>
<defs>
<clipPath id="clip0_2026_4867">
<rect width="58" height="58" fill="white" transform="translate(92 0.777344)"/>
</clipPath>
</defs>
</svg>
