<svg width="35" height="35" viewBox="0 0 45 46" fill="none" xmlns="http://www.w3.org/2000/svg">
<g id="logos:whatsapp-icon" clip-path="url(#clip0_2115_721)">
<path id="Vector" d="M0.960352 22.7139C0.959297 26.577 1.95492 30.349 3.84809 33.6737L0.779297 45.0332L12.2459 41.985C15.4174 43.7354 18.9708 44.6526 22.5818 44.6529H22.5913C34.5119 44.6529 44.2155 34.8187 44.2206 22.7312C44.2229 16.874 41.975 11.3662 37.8909 7.22245C33.8075 3.07906 28.3768 0.796008 22.5904 0.793335C10.6684 0.793335 0.965449 10.627 0.960527 22.7139" fill="url(#paint0_linear_2115_721)"/>
<path id="Vector_2" d="M0.188086 22.7068C0.186855 26.7089 1.21816 30.6158 3.17883 34.0596L0 45.8262L11.8777 42.6689C15.1504 44.4779 18.8351 45.4317 22.5846 45.4331H22.5942C34.9425 45.4331 44.9947 35.2452 45 22.725C45.0021 16.6573 42.6734 10.9516 38.4434 6.65936C34.2128 2.3677 28.5878 0.00249494 22.5942 0C10.2438 0 0.193008 10.1865 0.188086 22.7068ZM7.2617 33.4665L6.8182 32.7527C4.95387 29.7474 3.96984 26.2744 3.97125 22.7083C3.97512 12.3017 12.3289 3.83509 22.6013 3.83509C27.5759 3.83722 32.2509 5.80324 35.7673 9.3703C39.2834 12.9377 41.2182 17.6799 41.217 22.7236C41.2124 33.1302 32.8584 41.5979 22.5942 41.5979H22.5868C19.2447 41.5961 15.9669 40.6861 13.1084 38.9666L12.4281 38.5576L5.37961 40.4311L7.2617 33.4665Z" fill="url(#paint1_linear_2115_721)"/>
<path id="Vector_3" d="M16.9939 13.214C16.5745 12.2689 16.1331 12.2499 15.7343 12.2333C15.4077 12.219 15.0343 12.2201 14.6613 12.2201C14.288 12.2201 13.6813 12.3625 13.1686 12.9301C12.6553 13.4982 11.209 14.8712 11.209 17.6635C11.209 20.4561 13.2152 23.1547 13.4948 23.5338C13.7749 23.9121 17.3678 29.8259 23.0582 32.1009C27.7874 33.9915 28.7498 33.6155 29.7762 33.5207C30.8028 33.4262 33.0886 32.1481 33.555 30.8228C34.0217 29.4976 34.0217 28.3617 33.8818 28.1243C33.7419 27.8878 33.3685 27.7458 32.8086 27.4621C32.2486 27.1782 29.4962 25.8051 28.9831 25.6156C28.4698 25.4264 28.0966 25.3319 27.7233 25.9002C27.3499 26.4677 26.2778 27.7458 25.9511 28.1243C25.6246 28.5037 25.2978 28.5509 24.7382 28.2671C24.1779 27.9823 22.375 27.3837 20.2359 25.4503C18.5716 23.9458 17.448 22.088 17.1214 21.5197C16.7948 20.9522 17.0864 20.6446 17.3671 20.3618C17.6187 20.1075 17.9272 19.6991 18.2074 19.3678C18.4865 19.0363 18.5797 18.7998 18.7663 18.4213C18.9532 18.0424 18.8597 17.7109 18.7199 17.4271C18.5797 17.1432 17.4918 14.3362 16.9939 13.214Z" fill="white"/>
</g>
<defs>
<linearGradient id="paint0_linear_2115_721" x1="2172.85" y1="4424.78" x2="2172.85" y2="0.793335" gradientUnits="userSpaceOnUse">
<stop stop-color="#1FAF38"/>
<stop offset="1" stop-color="#60D669"/>
</linearGradient>
<linearGradient id="paint1_linear_2115_721" x1="2250" y1="4582.62" x2="2250" y2="0" gradientUnits="userSpaceOnUse">
<stop stop-color="#F9F9F9"/>
<stop offset="1" stop-color="white"/>
</linearGradient>
<clipPath id="clip0_2115_721">
<rect width="45" height="45.9783" fill="white"/>
</clipPath>
</defs>
</svg>
